<svg id="Layer_1" data-name="Layer 1" xmlns="http://www.w3.org/2000/svg" viewBox="0 0 1000 385.61"><defs><style>.cls-1{fill:#c31d1d;}.cls-2{fill:#211615;}.cls-3{fill:#e1feff;opacity:0.64;}.cls-4{fill:#fff;}.cls-5{fill:#212121;}</style></defs><polygon class="cls-1" points="260.3 132.97 260.3 382.12 198.51 382.12 110.44 273.77 110.44 382.12 36.13 382.12 36.13 132.97 98.06 132.97 185.99 248.01 185.99 132.97 260.3 132.97"/><polygon class="cls-1" points="347.75 242.61 347.75 262.1 417.51 262.1 417.51 312.37 347.75 312.37 347.75 331.85 430.19 331.85 430.19 382.12 291.15 382.12 291.15 192.34 430.19 192.34 430.19 242.61 347.75 242.61"/><path class="cls-1" d="M609.62,380.05v2.07h1.86Z"/><path class="cls-1" d="M566.66,332.3a71.89,71.89,0,0,0,13.24-10.44c14.73-14.73,22.21-32.78,22.21-53.66s-7.48-38.92-22.21-53.64-34.93-22.22-60-22.22H444V382.12h56.61V344.06h.68l34.13,38.06h74.17v-2.07Zm-66-89.69H519.9a25.6,25.6,0,1,1,0,51.2H500.64Z"/><path class="cls-1" d="M618.92,380.05v2.07h1.87Z"/><path class="cls-1" d="M768.22,220.13c-18.43-18.44-41-27.79-67.1-27.79h-82.2V380.05l1.87,2.07h80.33c26.1,0,48.67-9.35,67.1-27.79s27.79-41,27.79-67.1S786.66,238.58,768.22,220.13Zm-67.1,111.72H675.53V242.61h25.59c10.51,0,19.27,4.16,26.8,12.75,7.74,8.83,11.49,19.25,11.49,31.87s-3.75,23-11.49,31.86C720.41,327.69,711.63,331.85,701.12,331.85Z"/><path class="cls-2" d="M150.79,166.71a135.8,135.8,0,0,1-26.79,8c-41.1.62-95.82,18.42-111.71,29.18l5.66,19,7.48,4.56s15.09,41.61,39.78,44.79,55.74-9.81,62.73-25.12,9-16.55,9.29-46.18c0,0,.79-7.09,6.3-9.65,6-.87,10.53,4.64,10.53,4.64,16.49,24.62,18.84,24.56,33.06,33.56s47.32,2.88,66.25-13.28,8.8-59.26,8.8-59.26l3.75-7.9-5.66-19C240.1,129.7,184.23,145.58,150.79,166.71Zm-25.85,68c-4.25,19.92-26.38,29.91-49.75,31.1s-40.15-27.72-39.11-47,31.25-24.91,51.24-29.5,29.85,2.31,29.85,2.31C126,196.14,129.17,214.85,124.94,234.76Zm116.6-18.43c-20.23,11.79-44.22,15.54-58.66,1.18s-22-31.76-17.1-40.34c0,0,4.46-11.16,23.73-18.26s47.6-18.93,59-3.33S261.76,204.54,241.54,216.33Z"/><path class="cls-3" d="M124.94,234.76c-4.25,19.92-26.38,29.91-49.75,31.1a25.32,25.32,0,0,1-3,0,30.14,30.14,0,0,1-16.36-6.28c-12.64-9.4-20.44-27.36-19.73-40.72,1-19.31,31.25-24.91,51.24-29.5a61,61,0,0,1,7.17-1.23c8.9-1,15.16.37,18.81,1.71a17.17,17.17,0,0,1,3.87,1.83C126,196.14,129.17,214.85,124.94,234.76Z"/><path class="cls-3" d="M241.54,216.33c-10.82,6.31-22.72,10.31-33.64,10.47a36.33,36.33,0,0,1-17.66-3.87,30.65,30.65,0,0,1-7.36-5.42c-14.46-14.35-22-31.76-17.1-40.34,0,0,4.46-11.16,23.73-18.26,12.32-4.53,28.36-11,41.32-11,6.58,0,12.36,1.68,16.44,6.15a17.47,17.47,0,0,1,1.27,1.53C260,171.16,261.76,204.54,241.54,216.33Z"/><path class="cls-4" d="M113.3,189.82l-41.13,76a30.14,30.14,0,0,1-16.36-6.28l38.68-71.45C103.39,187.09,109.65,188.48,113.3,189.82Z"/><path class="cls-4" d="M247.27,154.05,207.9,226.8a36.33,36.33,0,0,1-17.66-3.87l40.59-75C237.41,147.9,243.19,149.58,247.27,154.05Z"/><path class="cls-1" d="M146.78,3.49A9.54,9.54,0,0,0,137.27,13V86.56a9.51,9.51,0,1,0,19,0V13A9.53,9.53,0,0,0,146.78,3.49Z"/><path class="cls-1" d="M235,27.83a9.54,9.54,0,0,0-13.45,0l-52,52a9.52,9.52,0,0,0,0,13.44h0a9.52,9.52,0,0,0,13.44,0l52-52A9.54,9.54,0,0,0,235,27.83Z"/><path class="cls-1" d="M74.92,27.83A9.51,9.51,0,0,0,61.48,41.28l52,52a9.52,9.52,0,0,0,13.44,0h0a9.52,9.52,0,0,0,0-13.44Z"/><circle class="cls-5" cx="813.96" cy="360.47" r="19.09"/><path d="M849,314.44q0-67.67,67.67-67.68t67.68,67.68q0,27-10.73,43.22l14.12,24.46H943.14l-1.65-2.8a101,101,0,0,1-24.85,2.8Q849,382.12,849,314.44Zm67.67-29q-29,0-29,29t29,29c1.42,0,2.77-.06,4.07-.19L904,314.44h41.67Q945.65,285.45,916.64,285.44Z"/></svg>